<?xml version="1.0" encoding="utf-8"?>
<!-- Generator: Adobe Illustrator 18.0.0, SVG Export Plug-In . SVG Version: 6.00 Build 0)  -->
<!DOCTYPE svg PUBLIC "-//W3C//DTD SVG 1.1//EN" "http://www.w3.org/Graphics/SVG/1.1/DTD/svg11.dtd">
<svg version="1.1" id="Layer_1" xmlns="http://www.w3.org/2000/svg" xmlns:xlink="http://www.w3.org/1999/xlink" x="0px" y="0px"
	 viewBox="0 0 950.4 614.2" enable-background="new 0 0 950.4 614.2" xml:space="preserve">
<g>
	<g>
		<path fill="#FCFAF7" d="M444.1,119.1c-155.6,0-253.2,62.5-253.2,154.5c0,116.2,113.4,221,376,221c262.6,0,309.4-290.5,54.3-352.5
			C556.5,126.3,496.9,119.1,444.1,119.1"/>
	</g>
	<g>
		<g>
			<ellipse fill="#FFFFFF" cx="470.6" cy="299.4" rx="138.3" ry="121.2"/>
		</g>
	</g>
	<g>
		<g>
			<path fill="#231F20" d="M466.9,404.7c-37.6,0-66.8-11.2-86.6-33.2c-34.5-38.2-28.9-96.6-28.8-97.2c0-0.3,0.3-0.5,0.5-0.4
				c0.3,0,0.5,0.3,0.4,0.5c-0.1,0.6-5.6,58.6,28.6,96.4c19.7,21.8,48.6,32.8,85.9,32.8c29.2,0,54.4-6.3,74.8-18.7
				c16.4-9.9,29.8-23.8,40-41.1c17.3-29.6,18.9-59.6,18.9-59.9c0-0.3,0.3-0.5,0.5-0.5c0.3,0,0.5,0.2,0.5,0.5
				c0,0.3-1.7,30.5-19.1,60.3c-10.2,17.5-23.8,31.5-40.3,41.5C521.6,398.4,496.3,404.7,466.9,404.7z"/>
		</g>
	</g>
	<g>
		<g>
			<path fill="#231F20" d="M419.5,284.8h-50.8c-0.3,0-0.5-0.2-0.5-0.5s0.2-0.5,0.5-0.5h50.8c0.3,0,0.5,0.2,0.5,0.5
				S419.8,284.8,419.5,284.8z"/>
		</g>
	</g>
	<g>
		<g>
			<path fill="#231F20" d="M471.4,365.9c-12,0-25.9-4-35.6-19.2c-0.1-0.2-0.1-0.5,0.2-0.7c0.2-0.1,0.5-0.1,0.7,0.2
				c20,31.5,58.9,13.8,59.2,13.7c0.2-0.1,0.5,0,0.7,0.2s0,0.5-0.2,0.7C496.1,360.8,484.9,365.9,471.4,365.9z"/>
		</g>
	</g>
	<g>
		<g>
			<path fill="#231F20" d="M400.9,292.7c5.4,4.7,2.6,15.1-6.9,15.1c-9.5,0-12.2-9.2-6.8-13.9"/>
		</g>
	</g>
	<g>
		<g>
			<path fill="#231F20" d="M480.8,219.2c0,0-40.5,71.6-128.8,55.3c0,0-9.2,44.3,27.4,95.3c0,0-24,13-35.5,25.6
				c0,0-25.1-48.8-18-111.9c4.6-41.2,15.9-70.1,47.6-100.6s96.6-40.3,111.6-24.9c0,0,47.6-13.8,90.1,26.6
				c37.1,35.2,46.1,76,45.9,106.1c-0.3,42-17.9,98.2-17.9,98.2s-17.3-20.4-31.1-29.8c0,0,26.5-30.4,28-72.7
				C600.1,286.2,505.3,283.8,480.8,219.2z"/>
		</g>
	</g>
	<g>
		<g>
			<path fill="#231F20" d="M404,524.4H277.5c0,0,31.9-118.6,103.9-152.4c0,0,24.3,32.2,90.4,32.2s98.9-43.7,98.9-43.7
				s52.9,42.9,73.4,91.2s26.4,72.7,26.4,72.7H404z"/>
		</g>
	</g>
	<g>
		<g>
			<path fill="#231F20" d="M394.4,307.9c-7.6,0-15.1-2.7-22.3-8c-0.1-0.1-0.2-0.3-0.2-0.4c0-0.2,0.1-0.3,0.2-0.4
				c0.1-0.1,10.1-6.6,23.4-6.6c7.6,0,14.8,2.1,21.4,6.1c0.1,0.1,0.2,0.2,0.2,0.4c0,0.2,0,0.3-0.2,0.4
				C417,299.6,407.7,307.9,394.4,307.9z M373.3,299.6c6.8,4.9,13.9,7.4,21.1,7.4c11.2,0,19.4-6.1,21.5-7.8
				c-6.3-3.7-13.1-5.6-20.3-5.6C384.4,293.6,375.7,298.2,373.3,299.6z"/>
		</g>
	</g>
	<g>
		<g>
			<path fill="#231F20" d="M566.9,274.7h-50.8c-0.3,0-0.5-0.2-0.5-0.5s0.2-0.5,0.5-0.5h50.8c0.3,0,0.5,0.2,0.5,0.5
				S567.2,274.7,566.9,274.7z"/>
		</g>
	</g>
	<g>
		<g>
			<path fill="#231F20" d="M548.3,292.7c5.4,4.7,2.6,15.1-6.9,15.1c-9.5,0-12.2-9.2-6.8-13.9"/>
		</g>
	</g>
	<g>
		<g>
			<path fill="#231F20" d="M541.8,307.9c-7.6,0-15.1-2.7-22.3-8c-0.1-0.1-0.2-0.3-0.2-0.4c0-0.2,0.1-0.3,0.2-0.4
				c0.1-0.1,10.1-6.6,23.4-6.6c7.6,0,14.8,2.1,21.4,6.1c0.1,0.1,0.2,0.2,0.2,0.4c0,0.2,0,0.3-0.2,0.4
				C564.4,299.6,555.1,307.9,541.8,307.9z M520.7,299.6c6.8,4.9,13.9,7.4,21.1,7.4c11.2,0,19.4-6.1,21.5-7.8
				c-6.3-3.7-13.1-5.6-20.3-5.6C531.8,293.6,523.1,298.2,520.7,299.6z"/>
		</g>
	</g>
	<g>
		<g>
			<path fill="#231F20" d="M480,329h-19.8c-0.1,0-0.3-0.1-0.4-0.2s-0.1-0.2-0.1-0.4l3-37c0-0.3,0.3-0.5,0.5-0.5
				c0.3,0,0.5,0.3,0.5,0.5l-3,36.4H480c0.3,0,0.5,0.2,0.5,0.5S480.2,329,480,329z"/>
		</g>
	</g>
	<g>
		<g>
			<path fill="#231F20" d="M431.5,347.8c-0.4,0-0.9,0-1.3-0.1c-0.3,0-0.5-0.3-0.4-0.6c0-0.3,0.3-0.5,0.6-0.4
				c5.4,0.7,9.2-3.8,9.2-3.9c0.2-0.2,0.5-0.2,0.7-0.1c0.2,0.2,0.2,0.5,0.1,0.7C440.1,343.6,436.7,347.8,431.5,347.8z"/>
		</g>
	</g>
	<g>
		<g>
			<path fill="#231F20" d="M483.6,83.3c96.1,0,59.1,91.9-3.6,91.9S395.3,83.3,483.6,83.3z"/>
		</g>
	</g>
	<g>
		<g>
			<path fill="#231F20" d="M832,524.9H111.8c-0.3,0-0.5-0.2-0.5-0.5l-11-488.7c0-0.1,0-0.3,0.1-0.4c0.1-0.1,0.2-0.2,0.4-0.2h726.1
				c0.3,0,0.5,0.2,0.5,0.5l5.1,488.7c0,0.1-0.1,0.3-0.1,0.4S832.1,524.9,832,524.9z M112.3,523.9h719.1l-5.1-487.7h-725L112.3,523.9
				z"/>
		</g>
	</g>
	<g>
		<g>
			<path fill="#231F20" d="M340,589.9c-0.2,0-0.4-0.1-0.5-0.3c-0.1-0.3,0-0.5,0.3-0.6l140.2-49c0.1,0,0.2,0,0.3,0L609,584.7
				c0.3,0.1,0.4,0.4,0.3,0.6c-0.1,0.3-0.4,0.4-0.6,0.3l-128.5-44.7l-140,48.9C340.1,589.9,340.1,589.9,340,589.9z"/>
		</g>
	</g>
	<g>
		<g>
			<path fill="#231F20" d="M479.1,566.2C479.1,566.2,479.1,566.2,479.1,566.2c-0.3,0-0.5-0.2-0.5-0.5l1.1-25.3
				c0-0.3,0.2-0.5,0.5-0.5c0.3,0,0.5,0.2,0.5,0.5l-1.1,25.3C479.6,566,479.4,566.2,479.1,566.2z"/>
		</g>
	</g>
	<g>
		<g>
			<path fill="#231F20" d="M732.1,144.4C732.1,144.4,732.1,144.4,732.1,144.4c-13.4,0-21.6-7.9-26.2-14.6c-5.2-7.5-7-15.2-7-16.5
				c0-1-1.2-1.8-2.4-2.7c-1.4-1-3-2.2-3.3-3.9c-0.4-2.3,1.1-3.4,2.3-4.2c0.6-0.4,1.1-0.8,1.4-1.2c0.4-0.5,0.6-2.2,0.8-4.2
				c1.2-9.3,3.6-28.6,33.5-28.6c12.1,0,21.1,3,26.6,8.9c7.1,7.5,6.5,17.5,6.3,20.8c0,0.4,0,0.7,0,0.8c0,1.3,1.2,2.3,2.5,3.3
				c1.4,1.1,2.8,2.2,2.8,3.8c0,1.5-1.1,2.5-2.3,3.6c-1.3,1.2-2.7,2.5-2.5,4.4c0.2,2.7-1.5,12.5-8.4,20.2c-5.6,6.2-13.2,9.5-22.5,9.9
				C733.1,144.4,732.6,144.4,732.1,144.4z M731.3,69.5c-29.1,0-31.4,18.7-32.5,27.8c-0.3,2.3-0.5,3.9-1,4.6c-0.4,0.6-1.1,1-1.7,1.5
				c-1.2,0.8-2.2,1.5-1.9,3.3c0.2,1.3,1.6,2.3,2.9,3.2c1.4,1,2.9,2,2.9,3.5c0,2.5,7.7,30,32.2,30c0.5,0,1,0,1.5,0
				c9.1-0.4,16.4-3.6,21.8-9.6c7.2-8,8.3-17.8,8.2-19.4c-0.1-2.4,1.5-3.9,2.9-5.2c1.1-1,2-1.9,2-2.9c0-1.1-1.2-2.1-2.4-3
				c-1.4-1.2-2.9-2.4-2.9-4.1c0-0.2,0-0.5,0-0.9c0.2-3.2,0.8-12.9-6-20.1C751.8,72.4,743.1,69.5,731.3,69.5z"/>
		</g>
	</g>
	<g>
		<g>
			<path fill="#231F20" d="M734,107.7h-8c-0.2,0-0.3-0.1-0.4-0.2c-0.1-0.1-0.1-0.3-0.1-0.4l2.8-9.6c0.1-0.3,0.4-0.4,0.6-0.3
				c0.3,0.1,0.4,0.4,0.3,0.6l-2.6,9h7.4c0.3,0,0.5,0.2,0.5,0.5S734.3,107.7,734,107.7z"/>
		</g>
	</g>
	<g>
		<g>
			<path fill="#231F20" d="M707.1,99c-0.3,0-0.5-0.2-0.5-0.5c0-0.3,0.2-0.5,0.5-0.5l15-1.3c0.3,0,0.5,0.2,0.5,0.5
				c0,0.3-0.2,0.5-0.5,0.5L707.1,99C707.1,99,707.1,99,707.1,99z"/>
		</g>
	</g>
	<g>
		<g>
			<path fill="none" stroke="#231F20" stroke-linecap="round" stroke-linejoin="round" stroke-miterlimit="10" d="M738.5,96.6"/>
		</g>
	</g>
	<g>
		<g>
			<path fill="#231F20" d="M753.8,98.4C753.8,98.4,753.8,98.4,753.8,98.4L738,97.1c-0.3,0-0.5-0.3-0.5-0.5c0-0.3,0.3-0.5,0.5-0.5
				l15.8,1.3c0.3,0,0.5,0.3,0.5,0.5C754.3,98.2,754.1,98.4,753.8,98.4z"/>
		</g>
	</g>
	<g>
		<g>
			<path fill="#231F20" d="M730,114.3c-3.4,0-6.5-0.2-9-0.5c-8-1-12.7-2.9-12.9-3c-0.3-0.1-0.4-0.4-0.3-0.7c0.1-0.3,0.4-0.4,0.7-0.3
				c0.2,0.1,19.2,7.7,44.6,0c0.3-0.1,0.5,0.1,0.6,0.3c0.1,0.3-0.1,0.5-0.3,0.6C744.6,113.4,736.5,114.3,730,114.3z"/>
		</g>
	</g>
	<g>
		<g>
			<path fill="#231F20" d="M715.1,101.4c1.2,1.1,0.6,3.5-1.6,3.5c-2.2,0-2.8-2.1-1.6-3.2"/>
		</g>
	</g>
	<g>
		<g>
			<path fill="#231F20" d="M713.6,105.4c-1.8,0-3.7-0.6-5.4-1.9c-0.1-0.1-0.2-0.3-0.2-0.4c0-0.2,0.1-0.3,0.2-0.4
				c0.1-0.1,2.4-1.6,5.6-1.6c1.8,0,3.6,0.5,5.1,1.5c0.1,0.1,0.2,0.2,0.2,0.4c0,0.2,0,0.3-0.2,0.4C719,103.4,716.8,105.4,713.6,105.4
				z M709.5,103.1c1.3,0.8,2.7,1.3,4.1,1.3c1.9,0,3.5-0.8,4.3-1.4c-1.3-0.6-2.6-1-4-1C712,102,710.4,102.7,709.5,103.1z"/>
		</g>
	</g>
	<g>
		<g>
			<path fill="#231F20" d="M746.9,101.4c1.2,1.1,0.6,3.5-1.6,3.5c-2.2,0-2.8-2.1-1.6-3.2"/>
		</g>
	</g>
	<g>
		<g>
			<path fill="#231F20" d="M745.4,105.4c-1.8,0-3.7-0.6-5.4-1.9c-0.1-0.1-0.2-0.3-0.2-0.4c0-0.2,0.1-0.3,0.2-0.4
				c0.1-0.1,2.4-1.6,5.6-1.6c1.8,0,3.6,0.5,5.1,1.5c0.1,0.1,0.2,0.2,0.2,0.4c0,0.2,0,0.3-0.2,0.4
				C750.8,103.4,748.6,105.4,745.4,105.4z M741.3,103.1c1.3,0.8,2.7,1.3,4.1,1.3c1.9,0,3.5-0.8,4.3-1.4c-1.3-0.6-2.6-1-4-1
				C743.7,102,742.1,102.7,741.3,103.1z"/>
		</g>
	</g>
	<g>
		<g>
			<path fill="#231F20" d="M729.4,90.7c-1.3,0-2.8-0.2-4.2-0.8c-2-0.7-3.3-1.7-4.1-2.7c-1.9,0.7-4,0.8-6-0.3
				c-1.4-0.7-2.3-1.8-2.7-3.2c-1.5-4.9,2.8-12.3,3-12.6c0.1-0.2,0.4-0.3,0.7-0.2s0.3,0.4,0.2,0.7c0,0.1-4.2,7.3-2.9,11.8
				c0.4,1.2,1.1,2.1,2.2,2.6c1.7,0.8,3.4,0.8,5,0.3c-0.6-1.1-0.8-2.1-0.8-2.9c-0.1-2.7,1.5-5.2,3.1-5.9c1-0.5,2.1-0.3,2.8,0.4
				c1.4,1.3,1.4,3.5-0.2,5.8c-0.9,1.2-2,2.3-3.4,3.1c0.8,0.9,2,1.7,3.5,2.2c3.7,1.4,7.2,0.6,9.8-1c-3.2-1.4-4-3.3-4.1-4.5
				c-0.3-1.7,0.6-3.6,2.2-4.7c1.7-1.1,3.7-1.2,5.4-0.2c1.9,1.1,2.4,3.3,1.3,5.7c-0.5,1.2-1.5,2.3-2.7,3.3c0,0,0.1,0,0.1,0
				c2,0.6,3.9,0.4,5.4-0.7c5.1-3.5,6.1-14.7,6.1-14.8c0-0.3,0.3-0.5,0.5-0.5c0.3,0,0.5,0.3,0.5,0.5c0,0.5-1,11.8-6.5,15.6
				c-1.8,1.3-3.9,1.5-6.3,0.8c-0.3-0.1-0.5-0.2-0.8-0.2C734.5,89.8,732.1,90.7,729.4,90.7z M736.2,79c-0.8,0-1.6,0.2-2.3,0.7
				c-1.3,0.9-2,2.3-1.8,3.7c0.3,1.6,1.7,3,4.1,4c1.3-1,2.3-2.2,2.8-3.4c0.4-0.9,1.2-3.2-0.9-4.4C737.6,79.1,736.9,79,736.2,79z
				 M724,78.3c-0.2,0-0.5,0.1-0.8,0.2c-1.3,0.6-2.6,2.7-2.5,5c0,0.9,0.3,1.8,0.8,2.5c1.3-0.6,2.4-1.7,3.2-2.8
				c0.9-1.4,1.6-3.3,0.3-4.5C724.6,78.4,724.3,78.3,724,78.3z"/>
		</g>
	</g>
	<g>
		<g>
			<path fill="#231F20" d="M808.8,156.5C808.8,156.5,808.8,156.5,808.8,156.5l-145.2-1.7c-0.3,0-0.5-0.2-0.5-0.5l-3-95.7
				c0-0.1,0-0.3,0.1-0.4c0.1-0.1,0.2-0.1,0.4-0.2l144,0.9c0.3,0,0.5,0.2,0.5,0.5l4.2,96.5c0,0.1,0,0.3-0.1,0.4
				C809.1,156.4,808.9,156.5,808.8,156.5z M664,153.8l144.2,1.7L804.1,60l-143-0.9L664,153.8z"/>
		</g>
	</g>
	<g>
		<g>
			<path fill="#231F20" d="M705.8,128.8c0,0-12.2,11-16.8,25.4l89.7,1.1c0,0-3.9-12-19.1-26.5c0,0-8,15.1-27.6,15.1
				S705.8,128.8,705.8,128.8z"/>
		</g>
	</g>
	<g>
		<g>
			<path fill="#231F20" d="M852.1,540.9C852.1,540.9,852.1,540.9,852.1,540.9l-751.2-1c-0.3,0-0.5-0.2-0.5-0.5L92.1,24.8
				c0-0.1,0-0.3,0.1-0.4c0.1-0.1,0.2-0.1,0.4-0.1h756.2c0.3,0,0.5,0.2,0.5,0.5l3.3,515.6c0,0.1-0.1,0.3-0.1,0.4
				S852.2,540.9,852.1,540.9z M101.3,538.9l750.3,1l-3.2-514.6H93.1L101.3,538.9z"/>
		</g>
	</g>
	<g>
		<g>
			<path fill="#231F20" d="M829.5,468.4H111.8c-0.3,0-0.5-0.2-0.5-0.5s0.2-0.5,0.5-0.5h717.7c0.3,0,0.5,0.2,0.5,0.5
				S829.7,468.4,829.5,468.4z"/>
		</g>
	</g>
	<g>
		<g>
			<path fill="#231F20" d="M516.1,397.6c-0.1,0-0.2,0-0.3-0.1c-0.2-0.1-0.3-0.4-0.2-0.7c5-8.4,16.1-13.7,26.9-18.8
				c8.5-4,16.5-7.8,21.3-12.9c10.7-11.6,33.3-59.7,33.5-60.2c0.1-0.3,0.4-0.4,0.7-0.2c0.2,0.1,0.4,0.4,0.2,0.7
				c-0.9,2-22.8,48.8-33.7,60.5c-4.9,5.3-13,9.1-21.6,13.2c-10.6,5-21.6,10.2-26.4,18.4C516.4,397.5,516.2,397.6,516.1,397.6z"/>
		</g>
	</g>
	<g>
		<g>
			<path fill="#231F20" d="M400.2,387.7c-0.1,0-0.3-0.1-0.4-0.2c-7.4-8.9-10.3-18.5-12.9-26.9c-2.6-8.7-4.9-16.1-11.2-20.9
				c-12.7-9.6-23.3-38.1-23.8-39.3c-0.1-0.3,0-0.5,0.3-0.6c0.3-0.1,0.5,0,0.6,0.3c0.1,0.3,11,29.4,23.4,38.9
				c6.6,5,8.9,12.6,11.6,21.4c2.6,8.4,5.5,17.8,12.7,26.6c0.2,0.2,0.1,0.5-0.1,0.7C400.5,387.7,400.3,387.7,400.2,387.7z"/>
		</g>
	</g>
	<g>
		<g>
			<path fill="#FFFFFF" d="M470.1,524.9C470,524.9,470,524.9,470.1,524.9c-0.3,0-0.5-0.3-0.5-0.6c0.1-0.5,6.3-46.1-3.9-61.1
				c-4.9-7.3-14.8-13.2-24.3-18.9c-10.3-6.2-21-12.5-25.1-20.6c-3.3-6.4-5.5-13-7.5-18.9c-2.7-8-5.1-14.9-8.8-17.2
				c-0.2-0.1-0.3-0.5-0.2-0.7c0.1-0.2,0.4-0.3,0.7-0.2c4,2.4,6.3,9.2,9.2,17.7c2,5.8,4.2,12.4,7.5,18.7c4,7.8,14.5,14.1,24.7,20.2
				c9.6,5.8,19.6,11.7,24.7,19.2c4.3,6.4,6.3,18.8,5.9,36.8c-0.3,13.3-1.9,24.9-1.9,25.1C470.5,524.7,470.3,524.9,470.1,524.9z"/>
		</g>
	</g>
	<g>
		<g>
			<path fill="#FFFFFF" d="M468.6,468.4c-0.2,0-0.5-0.2-0.5-0.4c-0.1-0.8-1.9-19.6,27.7-38.1c13.1-8.2,14.9-15.2,17.2-24.2
				c0.7-2.7,1.5-5.6,2.6-8.7c0.1-0.3,0.4-0.4,0.6-0.3c0.3,0.1,0.4,0.4,0.3,0.6c-1.1,3.1-1.8,5.9-2.5,8.6
				c-2.4,9.2-4.3,16.4-17.7,24.8c-15.2,9.5-21.8,19.1-24.7,25.5c-3.1,6.9-2.6,11.6-2.6,11.7C469.1,468.1,468.9,468.4,468.6,468.4
				C468.6,468.4,468.6,468.4,468.6,468.4z"/>
		</g>
	</g>
	<g>
		<g>
			<polygon fill="#FFFFFF" points="482.4,444.2 479.4,440.9 485.5,434.6 489,437.8 			"/>
		</g>
	</g>
	<g>
		<g>
			<polygon fill="#231F20" points="193.2,59.5 193.2,68.5 208.6,68.5 208.6,58.6 			"/>
		</g>
	</g>
	<g>
		<g>
			<polygon fill="#231F20" points="208,62.1 212,60 212,67 207.5,64.9 			"/>
		</g>
	</g>
	<g>
		<g>
			<path fill="#231F20" d="M205.9,73.3c-0.1,0-0.3-0.1-0.4-0.2l-5.2-5.5l-5.1,4.7c-0.2,0.2-0.5,0.2-0.7,0c-0.2-0.2-0.2-0.5,0-0.7
				l5.4-5c0.2-0.2,0.5-0.2,0.7,0l5.5,5.8c0.2,0.2,0.2,0.5,0,0.7C206.1,73.3,206,73.3,205.9,73.3z"/>
		</g>
	</g>
	<g>
		<g>
			<path fill="#231F20" d="M173.8,69h-17.4c-0.1,0-0.3-0.1-0.4-0.2c-0.1-0.1-0.1-0.2-0.1-0.4l1-9.9c0-0.3,0.2-0.4,0.5-0.4h16.4
				c0.3,0,0.5,0.2,0.5,0.5v9.9C174.3,68.8,174.1,69,173.8,69z M156.9,68h16.4V59h-15.5L156.9,68z"/>
		</g>
	</g>
	<g>
		<g>
			<path fill="#231F20" d="M176.4,72.3C176.4,72.3,176.4,72.3,176.4,72.3h-22.7c-0.2,0-0.4-0.1-0.5-0.3c-0.1-0.2-0.1-0.4,0.1-0.5
				l2.7-3.4c0.1-0.1,0.2-0.2,0.4-0.2h17.4c0.2,0,0.3,0.1,0.4,0.2l2.5,3.3c0.1,0.1,0.2,0.2,0.2,0.4C176.9,72.1,176.7,72.3,176.4,72.3
				z M154.7,71.3h20.6l-1.8-2.4h-16.9L154.7,71.3z"/>
		</g>
	</g>
	<g>
		<g>
			<path fill="#231F20" d="M129,58.6c11.7,0,12.8,13.3,0,13.3S118.3,58.6,129,58.6z"/>
		</g>
	</g>
	<g>
		<g>
			<path fill="#FFFFFF" d="M127.1,67.5c-0.1,0-0.3-0.1-0.4-0.2c-0.2-0.2-0.2-0.5,0-0.7l3.6-3.5c0.2-0.2,0.5-0.2,0.7,0
				c0.2,0.2,0.2,0.5,0,0.7l-3.6,3.5C127.3,67.5,127.2,67.5,127.1,67.5z"/>
		</g>
	</g>
	<g>
		<g>
			<path fill="#FFFFFF" d="M131.2,67.5c-0.1,0-0.2,0-0.3-0.1l-4.2-3.5c-0.2-0.2-0.2-0.5-0.1-0.7c0.2-0.2,0.5-0.2,0.7-0.1l4.2,3.5
				c0.2,0.2,0.2,0.5,0.1,0.7C131.5,67.5,131.4,67.5,131.2,67.5z"/>
		</g>
	</g>
	<g>
		<g>
			<path fill="#231F20" d="M230,61c0-2.5-3.7-2.8-3.7,0c0,2.1,0,5,0,6.1c0,3,3.7,2.3,3.7,0.4S230,61,230,61z"/>
		</g>
	</g>
	<g>
		<g>
			<path fill="#231F20" d="M228.1,71.5c-2.6,0-3.5-2.3-3.7-3.6c0-0.3,0.2-0.5,0.4-0.5c0.3,0,0.5,0.2,0.5,0.4c0,0.1,0.3,2.7,2.7,2.7
				c2.4,0,2.8-2.6,2.8-2.7c0-0.3,0.3-0.5,0.6-0.4c0.3,0,0.5,0.3,0.4,0.6C231.7,69.2,230.7,71.5,228.1,71.5z"/>
		</g>
	</g>
	<g>
		<g>
			<path fill="#231F20" d="M228.2,74.3c-0.3,0-0.5-0.2-0.5-0.5l-0.1-2.8c0-0.3,0.2-0.5,0.5-0.5c0.3,0,0.5,0.2,0.5,0.5l0.1,2.8
				C228.7,74.1,228.4,74.3,228.2,74.3C228.2,74.3,228.2,74.3,228.2,74.3z"/>
		</g>
	</g>
	<g>
		<g>
			<path fill="#231F20" d="M699.3,97.2c0,0-1,12.5,1.9,19.7c0,0-11.7-1.7-11.2-10.4S699.3,97.2,699.3,97.2z"/>
		</g>
	</g>
	<g>
		<g>
			<path fill="#231F20" d="M763,115.5c0,0,2.2-12.3,0-19.8c0,0,11.5,2.9,10.2,11.5S763,115.5,763,115.5z"/>
		</g>
	</g>
	<g>
		<g>
			<path fill="#231F20" d="M695.6,103.4c-0.4,0-0.9-0.3-1-0.8c-1.2-4.9-1.6-16.7,5.8-26.2c6.8-8.7,18.1-13.2,33.6-13.2
				c12.8,0,22.3,3.5,28.2,10.5c8.5,10,6.3,23.4,6.2,24c-0.1,0.5-0.6,0.9-1.2,0.8c-0.5-0.1-0.9-0.6-0.8-1.2c0-0.1,2.1-13.1-5.8-22.4
				c-5.5-6.5-14.5-9.8-26.7-9.8c-14.9,0-25.6,4.2-32,12.4c-6.9,8.9-6.6,19.9-5.4,24.5c0.1,0.5-0.2,1.1-0.7,1.2
				C695.7,103.4,695.7,103.4,695.6,103.4z"/>
		</g>
	</g>
	<g>
		<g>
			<path fill="#231F20" d="M733.8,125.6c-0.6,0-1-0.4-1-1s0.4-1,1-1c14.7,0,28.5-8.8,28.6-8.9c0.5-0.3,1.1-0.2,1.4,0.3
				c0.3,0.5,0.2,1.1-0.3,1.4C763,116.7,749.2,125.6,733.8,125.6z"/>
		</g>
	</g>
	<g>
		<g>
			<path fill="#231F20" d="M730,121.5c5.9,0,7.5,5.1,0.8,5.1S726.3,121.5,730,121.5z"/>
		</g>
	</g>
	<g>
		<g>
			<path fill="#231F20" d="M98.8,495.1H18.7c-0.3,0-0.5-0.2-0.5-0.5s0.2-0.5,0.5-0.5h80.1c0.3,0,0.5,0.2,0.5,0.5
				S99.1,495.1,98.8,495.1z"/>
		</g>
	</g>
	<g>
		<g>
			<path fill="#231F20" d="M931.7,495.1h-79.8c-0.3,0-0.5-0.2-0.5-0.5s0.2-0.5,0.5-0.5h79.8c0.3,0,0.5,0.2,0.5,0.5
				S931.9,495.1,931.7,495.1z"/>
		</g>
	</g>
</g>
</svg>
