<?xml version="1.0" encoding="UTF-8" standalone="no"?>
<svg id="svg2" xmlns:rdf="http://www.w3.org/1999/02/22-rdf-syntax-ns#" xmlns="http://www.w3.org/2000/svg" height="1131pt" width="804pt" version="1.1" xmlns:cc="http://creativecommons.org/ns#" xmlns:dc="http://purl.org/dc/elements/1.1/" viewBox="0 0 804 1131">
<g id="g4191">
<path id="path4" d="m460.88 5.7422c-1.37-0.013-2.82 0.2617-4.31 0.8828-7.23 2.3625-7.11 10.826-7.87 17.113-0.23 16.388-11.2 32.087-5.86 48.487 4.75 6.187 16.57 4.8 18.42-3.45 2.74-15.712 9.95-30.763 9.33-47.138 3.02-7.383-2.28-15.825-9.71-15.895zm60.24 7.3298c-1.5-0.008-3.05 0.272-4.59 0.891-14.08 18.762-23.74 40.999-30.07 63.549 0.45 10.2 14.98 11.412 19.92 3.812 7.87-17.375 14.01-35.562 24.43-51.662 5.03-8.153-1.57-16.546-9.69-16.59zm-132.88 0.746c-0.9 0.018-1.87 0.121-2.9 0.319-18.45 12.225 7.32 42.4-6.19 56.375-31.37 0.012-57.35 19.713-82.94 35.678-12.83 9.22-20.71-12.802-33.55-12.752-32.67-13.526-79.79 17.572-68.34 54.962 3.09 14.91 19.03 20.61 31.62 25.7 6.62 4.24 3.02 12.4-0.98 17.1-19.5 41.8-38.8 86.59-31.49 133.87 5.8 29.33 22.21 55.63 31.34 83.44-15.56 2.14-25.53-16.41-35.78-26.29-19.25-26.73-39.97-53.76-53.62-83.82-37.173-76.91-29.21-164.89-37.109-246.81-21.05-25.602-69.45-37.29-90.438-5.028-14.675 34.813 25.025 63.578 56.825 57.868 8.25-2.68 16.512 4.26 15.9 12.72 3.337 32.51 2.999 65.25 8.799 97.49 7.887 71.52 46.783 135.96 93.503 188.79 15.47 15.27 38.27 22.19 53.01 38.14 1.41 17.62-11.35 32.39-13.64 49.52-21.36 49.84-28.5 104.5-43.2 156.57-12.07 58.2-18.35 118.1-31.07 176.43-1.28 17.05-8.73 35.57 1.51 51.2-16.68 57.28-22.42 116.79-35.57 174.81-2.49 10.3 6.51 17.8 15.81 19 6.82 7.4-6.01 13-10.03 18.1-39.397 36.5-42.511 92.2-53.386 141.5-2.537 36.7-8.087 75.6 6.938 110.4 5.225 33.6 36.028 56.2 67.988 62.2 35.15 14.4 74.85-2.4 98.79-28.8 18.92 15.6 44.74 26.8 70.34 18 15.52-8.7 18.39-28.8 13.91-44.6-2.92-26.3-28.17-44.1-53-47.1-14.22 0.2-18.43 15.1-25.36 24.6-7.39 18.6-23.13 32.1-34.42 48.1-33.01 37.1-103.5 19.5-115.26-29-17.175-38.7-11.238-82.6-5.713-123.4 8.375-40.3 12.833-84 40.973-116.3 15.56-10.3 25.58-29.6 44.78-33.9 51.95-0.7 103.96 0.6 155.87-0.7 13.15 0.5 25.5-13.4 16.9-25.9-5.72-28.7-17.16-57.25-16.32-87 7.51-9.05 20.09-10.05 30.87-11.81 31.52-11.26 64.16-20.15 96.24-29.98 10.5-3.25 22.5-12.89 33.01-6.35 20 31.54 38.89 65.48 45.88 102.84 0.24 10.8 13.08 17.6 22.51 13.7 20.36-8 40.99-14.1 61.3-22.4 7.99-0.8 10.69 8.9 14.99 13.6 22.53 34.5 57.34 64.6 99.95 68.8 40.36 6.1 77.67-16.4 107.85-40.9 27.04-24.8 33.25-63.1 51.17-93.79 2.64-4.56 9.98-3.29 12.37 0.88 12.62 16.91 26.81 35.06 48.26 40.62 12.33 6.93 28.97 2.33 35.68-10.21 13.18-18.99 4.29-43.1-5.58-61.29-23.1-24.51-66.38-29.74-90.08-3.1-32.97 28.7-36.67 75.28-62.44 108.79-28.45 27.3-67.37 53.2-108.82 43.3-34.07-10.5-55.55-40.1-74.62-68-2.83-4.4-3.29-11.44 2.52-13.71 20.08-13.33 42.13-23.35 62.41-36.33 7.23-8.62 2.45-19.66-1.45-28.56-15.54-28.75-34.87-55.43-51.02-83.86-10.13-22.38-16.83-45.95-26.62-68.48-18.1-14.1-17.01-39.25-26.37-58.7-36.24-79.62-58.51-164.97-82.44-248.8-2.17-7.17-9.55-15.75-3.12-22.66 32.11-0.3 63.15-9.49 94.82-13.91 62.68-13.63 104.31-66.25 149.75-106.48 40.2-48.94 83.25-95.72 119.38-148.17 4.86-8.9 16.22-7.51 21.83-0.04 18.42 13.46 50.09 27.86 67.6 5.75 19.37-31.3 3.19-78.037-32.23-88.749-8.46-3.425-17.35-0.639-22.29 6.711-81.81 99.138-151.8 209.55-255.23 288.6-24.58 18.79-54.64 30.28-85.39 33.2-20.69 2.63-41.23 11.57-62.22 6.75-6.5-2.17-2.83-10.21 2.15-11.77 13.24-12.34 26.15-25.17 35.08-41.1 9.77-16.41 26.66 4.81 40.37-3.19 46.13-1.54 49.58-76.64 7.51-87.93-8.45 0-20.03-6.03-15.52-16.39 0.24-28.04 4.59-57.99-9.04-83.77-1.76-17.6-31.18-44.59-4.33-54.77 14.73-12.92 44.77-9.1 50.06-29.828-20.28-7.737-42.73 8.128-62.15 15.408-12.75 5.67-31.62 20.01-22.4 35.39 33.24 47.39 32.92 108.49 16.35 161.99-5.8 50.65-43.82 89.07-83.03 117.16-38.09 20.6-79.1 41.7-123.76 37.48-47.21 4.6-87.25-27.99-109.99-66.24-15.51-36.1-37.35-73.42-26.87-114.64 17.16-79.9 68.9-157.22 145.55-190.51 12.27-6.9 25.91 1.863 38.52-2.7 12.77-10.862 1.17-30.363 2.19-44.326-0.03-10.265-0.05-29.275-13.66-29.006zm187.99 23.196c-1.64-0.038-3.26 0.215-4.66 0.81-22.63 15.588-45.7 32.176-60.28 55.951-4.8 13.025 13.65 16.845 19.86 7.385 14.28-20.723 34.47-35.736 53.67-51.336 6.33-7.018-1.45-12.648-8.59-12.81zm-525.9 4.431c18.531-0.566 34.979 18.393 25.475 36.967-9.838 18.763-40.838 13.65-46.938-5.974-5.737-13.263 3.324-29.376 17.737-30.614 1.246-0.217 2.491-0.341 3.726-0.379zm197.6 63.105c16.32-0.42 30.84 22.45 15.82 34.2-11.24 7.85-19.2 33.99-35.91 20.85-25.35-12.74-9.43-50.45 15-54.14 1.69-0.58 3.4-0.87 5.09-0.91zm696.16 2.11c21.65 8.4 29.94 49.82 9.31 64.27-17.32 3.46-28.12-13.92-40.84-22.29-0.04-18.05 19.14-31.32 31.53-41.98zm-585.15 75.77c-0.47 0.01-0.96 0.05-1.47 0.11-13.78 2.02-15.57 26.7 1.23 23.7 14.7-1.89 14.89-24.19 0.24-23.81zm80.4 25.93c-1.59-0.04-3.35 0.19-5.27 0.75-13.37 5.15-15.39 34.23 4.33 29.11 16.34-3 16.31-29.42 0.94-29.86zm-133.43 15.81c-0.58-0.02-1.19-0.02-1.84 0.02-15.5 4.27-9.41 25.02-10.89 36.67-8.94 49.87 37.01 90.6 83.97 92.21 62.98 18.99 146.3-31.86 136.63-103.07 4.21-10.35-5.73-25.51-17.22-18.4-8.16 10.1-1.68 24.56-4.85 36.22-0.81 39.68-40.73 61.68-73.28 74.24-19.17 1.43-38.24-3.05-57.19-5.7-31.05-8.52-51.48-42.04-46.25-73.86-2.99-11.13 8.89-37.64-9.08-38.33zm285.68 67.45c23.61 0.96 30.79 38.85 13.72 53.7-9.16 11.25-39.27 8.06-30.37-11.58 6.28-13.84 2.42-33.5 16.65-42.12zm-100.67 145.82c9.66-0.36 10.92 16.24 14.83 24.17 18.33 62.54 36.7 125.15 56.5 187.28 1.53 4.66 3.85 9.01 5.45 13.64 13.66 28.71 27.16 59.63 34.65 91.27 0.29 11.69-14.84 14.6-23.92 15.81-1.27 0.37-2.51 0.75-3.73 1.18-6.64 7.26-22.54 5.99-32.29 10.26-51.37 19.93-105.27 33.44-159.85 42.95-46.15 2.94-89.98 21.33-136.32 23.53-24.51 0.52-47.28 14.02-72.17 10.85-8.42-2.82-7.14-13.63-6.17-20.57 4.9-19.61 5.99-43.77 11.89-61.31-0.39-3.99 1.61-7.52 1.56-11.45 14.46-99.3 34.49-197.81 69.43-291.66 5.11-7.42 3.46-25.3 16.71-23.39 65.89 43.15 153.03 28.97 217.13-10.46 2.44-1.39 4.51-2.04 6.3-2.1zm120.17 341.38c9.61 0.12 11.93 13.55 15.06 21.21 13.26 46.16 45.1 83.27 67.57 124.97 2.34 5.02 4.46 12 0.31 16.54-33.33 19.57-66.31 39.96-102.84 53.31-10.25 4.75-31.71 16.05-34.73-2.44-8.63-36.7-32.16-67.3-47.35-101.51-6.62-4.46-16.03-9.02-24.21-6.12-55.31 25.77-116.93 35.69-173.61 57.76-8.4 27.35 9.91 56.7 11.41 84.86-0.06 8.1 10.7 21.6-0.25 26.2-58.33 4.4-117.33-0.2-176.23 1.4-10.21-0.8-11.43-14.4-6.53-21.4 12.3-51.64 12.86-107.84 34.35-157.06 64.02-12.04 130.81-21.06 195.07-35.89 82.59-7.7 159.85-38.57 238.75-61.41 1.16-0.3 2.23-0.43 3.23-0.42zm331.69 133.71c23.94-0.32 36.95 29.2 33.98 50.36-1.84 7.51-7.66 15.77-16.7 13.36-17.9-12.01-30.34-30.49-41.3-48.79 1.28-8.91 11.85-11.52 19.09-14.46 1.69-0.3 3.34-0.45 4.93-0.47zm-664.97 405.37c21.95 3.2 34.12 39.8 19.53 56.9-17.03 12-39.09-7.8-42.33-23.5 7.63-11 11.14-26 22.8-33.4z" transform="scale(.8)"/>
<path id="path18" d="m473.6 463.12c-2.63-0.05-5.11 0.35-7 1.22-21.59 4.5-40.18 20.67-62.85 19.41-39.51 4.67-78.7-2.34-118.39-1.86-8.88-1.94-27.65-5.75-27.85 8.08 5.24 9.57 18.34 8.28 27.53 11.08 49.17 0.25 98.65 7.27 147.81-0.58 18.74-6.96 37.35-14.41 55.68-21.93 5.85-9.52-5.54-15.26-14.93-15.42zm22.21 38.1c-1.95 0.03-3.82 0.25-5.46 0.63-76.79 24.6-157.79 17.54-236.26 28.58-5.13 1.46-7.14 6.73-5.23 11.88 9.32 7.88 22.45 4.68 33.65 5.15 71.28-9.5 144.73-3.97 214.08-25.74 5.86-1.98 14.5-1.31 17.12-8.01 0.57-9.17-9.43-12.61-17.9-12.49zm11.65 45.05c-2.08 0.05-4.11 0.58-5.87 1.74-92.28 21.24-188.33 19.98-279.48 45.37-11.52 14.57 17.81 19.31 26.28 14.76 87.91-22.75 179.83-20.7 267.87-43.14 15.58-5.31 2.47-19.03-8.8-18.73zm20.47 46.74c-2.49 0.02-4.73 0.44-6.33 1.31-34.34 11.5-70.93 14.43-105.71 25.08-62.63 8.96-126.84 10.81-188.05 28.48-9.64 5.26-3.3 16.68 5.95 17.01 29.15-1.53 57.19-11.83 86.2-14.83 75.55-5.82 151.19-17.72 223.44-40.42 10.79-9.36-4.72-16.71-15.5-16.63zm34.32 55.88c-44.37 7.92-92.15 10.62-137.25 19.87-66.54 12.28-135.12 11.15-200.89 29.18-9.26 3.28-30.83 0.8-27.71 16.84 6.68 7 16.98 5.78 25.75 4.81 49-11.84 98.95-19.02 149.09-23.18 41.56-1.4 81.44-14.96 122.94-16.94 23.46-7.31 55.29 0.43 73.52-16.94-1.6-4.63-3.92-8.98-5.45-13.64zm-0.85 45.37c-5.67 0.1-11.51 1.23-15.55 2.73-84.29 8.47-166.72 33.02-251.76 34.65-38.69 6.62-76.25 19.26-112.74 33.41 0.05 3.93-1.95 7.46-1.56 11.45 18.52 14.5 42.51-6.95 62.51-9.41 43.09-20.14 90.69-14.27 136.36-22.3 66.18-13.77 134.14-20.08 199.74-35.14 4.04-12.01-6.18-15.58-17-15.39zm21.33 50.83c-0.49 0-0.96 0.02-1.41 0.06-73.11 24.85-150.57 31.13-225.16 50.88-58.09 2.75-115.67 12.29-172.05 26.91-5.13 0.98-8.15 8.32-3.87 11.84 13.17 9.2 29.92 4.43 43.92-0.47 46.95-9.05 94.26-16.83 142-19.53 69.31-16.87 139.56-25.99 208.54-43.99 1.22-0.43 2.46-0.81 3.73-1.18 6.31-3.73 14.23-5.01 18.82-11.2 3.33-9.04-7.26-13.36-14.52-13.32z" transform="scale(.8)" fill="#e16529"/>
<path id="path32" d="m593.67 801.43c-0.68-0.01-1.38 0.06-2.11 0.21-6.51 1.97-3.22 9.6-0.22 13.31 24.4 32.49 42.41 69.79 61.96 105.45 1.55 8.28 16.33 16.05 19.13 4.61-16.85-39.49-39.52-76.21-62.81-112.16-4.41-4.38-9.32-11.36-15.95-11.42zm-48.35 23.98c-4.85 0.36-2.14 6.25-2.48 9.27 22.9 34.36 45.27 69.03 71.11 101.36 4.89 4.76 18.02 6.3 14.46-4.47-16.34-26.33-37.75-49.01-52.48-76.26-9.38-9.79-14.71-29.77-30.61-29.9zm-36.04 5.79c-0.86-0.01-1.77 0.08-2.73 0.29-8.27 5.42-0.83 15.86 2.2 22.3 21.33 37.02 47.79 71.25 63.75 111.21 3.59 10.02 20.4 4.38 15-6.25-15.08-40.31-44.02-73.35-63.7-111.26-2.5-6.99-6.22-16.24-14.52-16.29zm-33.87 5.41c-0.44-0.01-0.89 0-1.35 0.03-11.88 9.21 10.95 44.92 22.18 28.32-4.09-10.29-7.27-28.1-20.83-28.35zm-32.55 11.1c-0.44-0.01-0.88-0.01-1.32 0.01-7.13 10.67 11.06 37.62 24.58 28.34-1.8-11.71-9.79-27.95-23.26-28.35zm-68.8 6.41c-11.76 7.76 6.84 21.29 8.05 31.23 0.9 12.51 24.47 14.75 18.42-0.71-5.8-11.37-12.34-29.33-26.47-30.52zm38.84 2.36c-0.82-0.02-1.68 0.03-2.56 0.17-10.59 8.94 10.08 37.75 21.92 28.09-1.28-10.12-6.99-27.9-19.36-28.26zm-71.35 3.76c-9.9 10.75 6.99 46.27 23.34 37.07-2.43-13.65-7.15-35.97-23.34-37.07zm-33.48 8.41c-0.88 0.01-1.81 0.1-2.81 0.29-9.19 8.96 2.69 22.37 3.46 32.34 2.09 12.11 24.22 11.22 16.9-3.43-3.63-9.54-4.34-29.27-17.55-29.2zm-122.79 15.35c-8.07 5.19-1.94 15.55-2.1 23.12-0.87 24.92 2.68 50.52-2.98 75.43 1.67 11.9-6.35 24.75 0.18 35.85 4.21 6.8 15.13 1.8 15.16-5.5 2.78-23.05 5.8-46.26 6.39-69.51 1.83-0.15 0.3-13.43 3.97-8.08 7.5 21.91 8.22 45.55 10.32 68.49-0.72 8.2 1.5 19.8 11.29 21.1 6.96-1.6 9.58-10.1 6.42-16.2-1.24-32.1-7.37-63.71-8.31-95.84 0.37-21.78-27.06-20.47-40.34-28.86zm89.29 4.18c-1.34-0.03-2.79 0.18-4.37 0.68-6.59 8.94 2.6 20.28 3.86 29.73 13.22 32.5 13.64 68.99 21.72 103.01 2.36 8.1 16.47 9.8 16.75-0.3-6.55-37.71-9.04-76.92-23.65-112.55-1.32-8.16-4.96-20.34-14.31-20.57zm-32.47 2.95c-0.96-0.04-1.96 0.12-3.03 0.51-2.37 0.5-3.37 2.48-4.06 4.62 5.93 45.08 11.64 90.6 21.17 135.04 3.06 10.1 22.94 10.1 18.07-2.9-12.46-42.5-13.93-87.28-22.06-130.65-2.77-2.87-5.96-6.48-10.09-6.62z" transform="scale(.8)" fill="#05b0de"/>
</g>
</svg>
