<?xml version="1.0" encoding="UTF-8" standalone="no"?>
<svg id="svg4627" xmlns:rdf="http://www.w3.org/1999/02/22-rdf-syntax-ns#" xmlns="http://www.w3.org/2000/svg" height="268.59mm" width="335.74mm" version="1.1" xmlns:cc="http://creativecommons.org/ns#" xmlns:dc="http://purl.org/dc/elements/1.1/" viewBox="0 0 1189.6429 951.71424">
<g id="layer1" transform="translate(1660.5 321.21)">
<path id="path38" d="m-1660.5-321.21c152.52 152.52 244.03 454.5 274.53 905.96 0-152.17-9.1336-286.38-27.379-402.67 91.261-26.838 182.26-46.84 273-60.031 2.4414 67.617-1.1459 137.79-10.741 210.5-78.294 17.431-156.59 43.54-234.88 78.336 77.409-25.803 154.82-45.539 232.23-59.216-1.0936 7.5138-2.2283 15.044-3.4489 22.612 2.2462-7.7372 4.374-15.443 6.4058-23.124 91.429-15.972 182.86-23.485 274.29-22.54-1.9914 7.5979-4.0287 15.194-6.1598 22.786 3.1923-7.5817 6.2623-15.167 9.2226-22.755 93.46 1.1584 186.92 11.159 280.38 29.993-1.9434 5.22-3.9142 10.433-5.9167 15.64 2.7279-5.066 5.3994-10.138 8.0215-15.217 9.5275 1.9335 19.055 3.9483 28.583 6.0655-9.0802-3.0267-18.161-5.9204-27.242-8.7136 36.229-70.695 62.235-142.59 77.982-215.7 7.4912 1.5517 14.981 3.1371 22.469 4.7843-7.3398-2.3488-14.682-4.6217-22.026-6.8433 16.443-77.307 21.436-155.96 14.988-235.96 8.4643 1.569 16.913 3.1876 25.34 4.873-8.4972-2.5491-17.014-5.0118-25.549-7.3952-0.55814-6.6769-1.1872-13.362-1.9046-20.058-0.23017 6.4457-0.51231 12.88-0.82067 19.309-110.4-30.587-223.95-47.33-340.68-50.222-1.9576-7.9943-4.0357-15.992-6.2428-23.993 1.1003 7.9775 2.0998 15.95 3.0513 23.922-11.136-0.2517-22.296-0.39193-33.49-0.39179-97.499 0.001-197.19 9.5773-299.06 28.683-2.9137-6.7582-5.9371-13.488-9.0882-20.184 2.155 6.8687 4.2053 13.782 6.2057 20.716-91.81 17.374-185.39 42.492-280.74 75.371 97.02-25.091 192.2-44.436 285.55-58.061 17.782 66.377 28.618 135.69 32.452 207.97-90.465 16.894-181.19 43.165-272.17 78.84-39.542-252.02-121.92-419.79-247.15-503.28zm805.8 192.18c4.7152-0.0132 9.4249-0.007 14.13 0.0117 7.2213 70.544 8.5988 140.84 4.1466 210.9-20.404-0.96779-40.823-1.4616-61.255-1.4613-74.945 0.000805-150.07 6.518-225.38 19.543-4.124-71.369-19.251-139.86-45.398-205.46 107-15.386 211.59-23.236 313.76-23.535zm19.921 0.0486c114.91 0.7698 226.75 11.13 335.51 31.099-3.8975 78.436-13.609 155.58-29.155 231.43-96.285-27.815-192.87-44.703-289.76-50.671 4.2834-70.373-1.2533-140.99-16.603-211.86zm-42.069 231.89c12.969 0.007 25.934 0.16756 38.892 0.45755-5.4984 68.182-16.544 136.13-33.115 203.85-14.755-0.61662-29.51-0.92676-44.266-0.92654-76.809 0.00089-153.62 8.3818-230.43 25.097 17.721-73.217 25.582-143.85 23.573-211.9 81.998-11.103 163.78-16.631 245.35-16.581zm57.106 0.95228c97.161 3.1662 194.02 14.269 290.57 33.299-15.372 74.076-36.303 146.92-62.797 218.52-91.174-27.842-182.34-43.909-273.51-48.201 24.452-67.644 39.702-135.52 45.741-203.62zm-106.38 375.65c-150.99 0-301.22 22.878-450.69 68.633 298.94-48.806 600.92-48.806 905.96 0-152.52-45.756-304.27-68.633-455.27-68.633zm-276.82 59.482c-54.906 9.1511-54.906 91.511 9.1511 91.511 64.058 0 64.058-82.36 9.1511-91.511 36.604 18.302 36.604 73.209-9.1511 73.209s-45.755-54.907-9.1511-73.209zm457.55 0c-54.907 9.1511-54.907 91.511 9.1511 91.511s64.058-82.36 9.1511-91.511c36.604 18.302 36.604 73.209-9.1511 73.209s-45.755-54.907-9.1511-73.209z"/>
</g>
</svg>
