<?xml version="1.0" encoding="UTF-8" standalone="no"?>
<svg id="svg2" xmlns:rdf="http://www.w3.org/1999/02/22-rdf-syntax-ns#" xmlns="http://www.w3.org/2000/svg" height="1173pt" width="772pt" version="1.1" xmlns:cc="http://creativecommons.org/ns#" xmlns:dc="http://purl.org/dc/elements/1.1/" viewBox="0 0 772 1173">
<g id="g4149">
<path id="path4" d="m158.92 7.4258c-2.39-0.0137-4.84 0.1289-7.35 0.4375-10.55 3.0627-7.07 17.512 3.49 18.262 43.53 2.275 43.74 70.401 88.68 70.113 18.05 4.242 32.72-12.113 50.4-6.701 22.31 8.238 35.6 29.703 53.42 44.143 21.3 17.96 51.74 4.95 76.2 12.56 39.21 16.26 39.95 71.7 80.03 86.16 27.93-0.45 59.88-1.13 81.56 19.76 22.32 22.4 31.96 52.69 42.25 81.56 27.21 77.7 9.56 179.75-63.53 226.63-56.08 47.27-143.16 45.47-201.18 2.94-27.78-27.38-59.06-59.27-57.21-101.65-0.53-53.75 13.02-111.54 54-149.45 5.65-9.8 32.25-9.93 22.47-25.63-20.21-16.08-45.95-23.05-68.79-33.67 1.59-10.4 15.2-16.95 22.95-24.11 27.21 1.46 43.73 28.56 60.84 46.57 7.2 9.52 27.4 3.91 21.26-10.03-16.02-24.33-39.95-44.57-68.05-53.32-11.22-5.6-26.35-7.4-35.76 2.56-9.61 6.18-18.69 24.2-31.79 15.05-20.65-22.57-52.87-34.62-83.13-26.33-13.24 1.52-26.17 10.13-39.69 5.47-31.54-11.81-54.18-38.68-83.877-53.53-7.525-4.38-23.401-4.61-19.638 8.22 30.225 23.65 60.735 48.4 96.375 63.57 23.51 7.4 46.79-2.95 69.65-7.01 22.82-4.19 33.24 20.51 51.35 28.57 4.22 2.79 1.34 8.79-2.92 9.81-29.69 18.82-60.49-18.33-91.09-3.7-19.41 6.41-43.43 11.48-61.09-2.17-14.56-11.46-31.662-19.03-50-21.27-22 0.86-35.187-24.05-57.162-23.36-7.1126 1.88-8.1122 11.23-1.9122 14.94 17.425 13.28 37.174 27.87 60.299 27.28 22.562 4.26 38.195 24.92 60.935 29.15 22.38 2.29 45.94 1.29 66.59-7.96 27.36 0.21 53.14 23.15 81.32 8.89 19.8-13.03 51.06-8.09 64.96 9.82-15.13 20.44-36.41 39.29-45.52 64.65-2.17 5.33-8.53 11.36-14.58 8.1-20.8-6.73-47.75-2.65-58.63 18.54-14.3 28.37 10.1 65.57 41.16 66.32 12.49-1.46 14.19 10.17 13.13 19.5-0.36 52.15 42.64 91.37 81 120.04 4.46 1.75 1.02 5.6-1.56 6.66-46.73 16.27-102.51 30.23-148.46 4.6-48.28-42.99-85.88-97.6-111.41-157.23-6.348-26.45-32.56-47.51-60.222-42.67-24.6 0.33-36.926 33.38-22.963 51.93 11.062 17.88 33.276 29.34 54.263 24.59 6.875-2.3 15.85-1.36 19.037 5.94 22.005 41.64 50.575 79.51 82.585 113.58 50 47.33 127.6 43 188.4 21.7 11.13 1.01 7.06 15.03 4.53 22.15-23.62 62.73-35.68 129.52-60.3 191.95-8.51 21.94-5.01 46.25-13.19 68.33-5.26 52.18-20.84 103.02-37.49 152.52 0.34 13.6-15.76 29.7-3.34 41.1 37.43 20.7 81.07 27.3 123.18 29.5 6.86 3.1 24.04-0.5 19.61 12.3-15.41 45-43.25 91.6-89.61 109.2-15.94 5.9-33.39 0.6-49.65 4.2-64.61-4.3-108.31-59.8-166.36-81.1-7.191-1-16.952-0.6-19.828 7.4-9.662 21.8-13.437 52.7 5.126 71 24.2 18.8 61.762 18 82.612-5.8 2.35-4.6 7.86-5.2 11.85-2.3 45.34 26.2 100.05 38.4 151.56 24.5 53.8-20.8 83.53-73.2 103.01-124.6 2.03-4.5 4.92-8.6 9.88-9.9 119.55 1.3 233.36-40.9 341.22-87.5 25.52-1.2 43.37 23 58.42 40.8 46.17 62.5 73.69 154.1 29.94 224.9-16.42 20.7-38.07 37.9-62.43 48.8-39.34 9.5-80.11 0.8-120.09 4.8-17.47 2.6-15.47 25-14.94 37.7-2.63 35.9 33.96 70.8 69.97 61.1 20.43-8.5 39.81-31.8 30.2-54.9-2-7.4-11.08-18.5-2.36-24.6 16.98-1.2 34.16-2.4 50.91-5.4 32.67-16.3 65.97-38 81.31-72.4 22.04-39.2 19.06-86.6 9.01-128.8-14.92-55-43.82-110.7-93.69-141.5-2.88-3.9-1.77-9.5 3.46-10.9 18.11-10.6 36.4-20.89 54.08-32.18 15.09-13.61 0.59-34.05-4.16-49.11-31.95-56.8-68.72-110.73-99.15-168.36-34.49-70.67-72.74-139.95-114.54-206.69-0.17-3.46 1.3-8.56 6.24-7.46 56.75-9.9 113.66-31.78 154.06-74.69 21.89-20.92 31.05-50.51 42.3-77.77 11.34-38.42 27.72-75.71 29.63-116.36 1.97-7.58 2.62-25.72 15.6-20.43 19.95 7.6 46.74 0.49 54.77-20.69 15.27-19.17 6.84-46.87-8.89-62.53-18.02-11.43-41.77-10.53-60.9-2.17-13.86 10.42-12.77 29.5-17.61 44.69-12.06 81.18-25.96 165.16-70.67 235.81-41.52 42.69-100.6 74.25-160.67 72.67 15.08-35.12 32.05-71.29 35.2-110.74 17.37-11.19 48.1-6.84 55.93-31.53 4.27-25.21-5.49-59.65-34.09-65.83-11.75-10.08-32.55 8.63-39.19-7.02-10.11-29.89-23.33-60.03-47.98-80.88-25.75-15.67-55.3-26.32-85.89-24.24-23.14-7.1-25.41-35.78-41.6-50.79-10.4-17.12-28.41-28.66-47.34-34.07-19.76-9.29-45.31 2.72-63.65-9.98-21.31-24.338-47.92-46.3-81.12-50.35-16.48-3.675-34.29 17.675-48.17 2.187-17.48-27.609-40-62.657-75.8-62.861zm-37.03 76.361c-0.93 0.022-1.88 0.088-2.84 0.201-6.86 4.1-4.24 13.924 2.15 17.322 22.49 17.77 44.52 44.92 76.19 42.3 19.93-15.65 32.95 13.09 50.97 16.9 20.74 10.2 40.38-24.04 57.5-5.19 16.58 29.45 50.89 45.9 84.2 36.15 27.74-10.33 40 21.23 51.4 39.69 1.04 11.68 8.3 28.93 23.24 22.24 12.11-9.81 4.66-27.54-2.65-38.02-11.49-15.19-20.54-35.42-40.41-40.93-21.45-10.54-43.78 3.58-65.8-1.46-13.05-6.8-20.55-20.18-30.44-30.88-16.52-14.1-43.53-21.35-61.64-5.86-8.5 6.63-18.46-0.43-24.02-7.21-13.24-9.05-30.78-15.49-46.38-8.34-30.16 4.27-42.69-37.577-71.47-36.913zm790.1 110.29c28.75 0.24 23.59 55.87-5.75 53.46-9.19 0.65-19.49-7.12-15.84-17.23 4.69-12.22 2.59-32.83 18.7-36.07 1-0.11 1.96-0.16 2.89-0.16zm-234.01 149.99c13.9-0.3 16.6 17.99 18.95 28.79 10.22 19.87-35.26 36.54-30.71 9.63-4.45-13.45-7.9-33.95 10.38-38.33 0.47-0.05 0.93-0.08 1.38-0.09zm-111.8 6.85c-1.78-0.07-3.73 0.1-5.89 0.55-11.29 11.02-0.84 29.88 2.2 42.27 3.67 52.51-46.43 107.63-101.24 94.98-35.89-11.47-55.45-49.26-62.18-84.04-4.13-8.1-19.65-12.18-24.01-2.13-5.74 22.24 10.41 40.81 18.76 59.9 30.28 46.84 101.39 61.59 147.39 29.99 30.05-24.86 54.52-63.31 47.57-103.7-5.23-13.56-5.45-37.14-22.6-37.82zm-66.78 0.89c-0.53 0-1.06 0.02-1.6 0.07-24.04 4.77-2.55 48.98 18.11 36.5 13.5-11.55-0.04-36.4-16.51-36.57zm-63.19 15.75c-1.49-0.06-3.03 0.08-4.61 0.47-19.25 5.87-1.99 40.79 15.56 30.35 12.64-9.7 3.44-30.15-10.95-30.82zm-163.6 11.24c8.28 0 16.4 6.48 13.23 15.89-4.5 10.82 0.42 30.9-14.64 33.95-26.25-1.7-32.16-48.32-2.11-49.44 1.15-0.27 2.34-0.4 3.52-0.4zm-223.88 38.76c15.412 0.75 33.65 32.85 11.65 38-18.525 2.25-34.225-31.44-11.65-38zm561.8 140.05c4.21 0.07 8.22 2.47 9.51 7.36 6.68 13.72 19.41 24.36 23.48 39.06 2.85 2.73 4.16 6.61 6.03 10.03 29.67 47.94 60.31 100.94 82.52 153.83 0.85 1.62 1.7 3.27 2.58 4.91 27.01 41.8 51.37 89.95 80.35 132.2 9.12 22.32 32.69 43.34 27.2 68.46-52.78 36.34-112.5 60.94-172.04 83.14-97.91 37.5-204.94 62-310.15 44.7-26.44-0.1-52.66-4.8-77.45-13.8-10.45-4.4-5.47-16.8-3.86-25 15.13-49.1 32.8-98.61 37.75-150.25-0.12-4.06 1.11-8.23 2.53-12.05 7.6-22.86 3.53-48.48 14.47-70.35 5.54-23.04 18.58-46.55 22.62-68.39 0.38-2.53-0.57-5.67 1.51-7.61 5.39-31.36 19.37-63.65 28.78-92.76-0.35-4.69 1.91-9.3 3.74-13.48 7.24-12.48-0.64-42.77 19.86-42.51 32.64 10.56 67.85 10.05 101.41 7.5 2.53-1.56 5.61-2.64 8.61-2.59 27.97-11.72 59.07-25.91 81.59-48.42 2.31-2.69 5.69-4.04 8.96-3.98zm-516.45 633.99c14.186 1.3 23.516 16.3 36.226 21.8 8.23 11.7-7.52 20.4-16.61 24-24.152 8.7-36.716-34.1-19.616-45.8zm610.82 184.7c5.79-0.1 11.57 0.8 17.3 1.6 10.65 4.9 9.46 18.8 14.49 28 9.42 17.5-18.84 43.8-32.75 25.2-11.78-13.3-23.52-43.8-4.83-54.4 1.93-0.3 3.86-0.4 5.79-0.4z" transform="scale(.8)"/>
<path id="path14" d="m482.27 458.27c17.33-7.05 23.29 15.38 32.54 24.95 2.28 2.19 3.33 5.29 4.82 8.03 18.44 42.78 45.75 81.08 66.02 123.06 0.68 1.3 1.36 2.62 2.06 3.93 25.68 47.57 49.15 96.23 78.18 141.86 5.76 13.57-11.59 11.9-18.56 17.27-15.57 12.52-33.77 21.87-47.6 36.41-20.59 3.96-37.58 17.7-57.77 23.07-35.63 9.51-71.66 21.07-108.91 19.27-12.4 0.64-6.21 20.78-20.04 19.88-10.55 0.22-8.47-13.35-16.31-16.69-22.59 0-44.91-3.16-67.47-2.12-6.49 4.12-2.78 13.76-8.98 18.06-6.65 5.28-19.24 0.16-17.17-9.25 2.27-21.48-26.47-10.58-39.01-16.23-11.45-6.35-13.75 10.51-23.99 9.19-13.77-3.61-9.88-21.4-6.27-31.04 6.07-29.03 15.87-56.76 25.57-84.61 3.39-6.23-2.45-9.92-6.23-13.51-0.09-3.25 0.89-6.58 2.03-9.64 17.59 0.51 17.55-20.68 23.62-32.31 3.06-9.59-12.02-9.78-10.51-18.57 3.38-9.67 18.31 2.25 20.68-9.28 3.5-12.59 9.33-24.89 10.05-38.01-0.68-7.67-11.34-6.44-14.17-12.82 0.3-2.03-0.46-4.54 1.21-6.09 5.52-4.32 13.86 1.56 18.23-4.82 3.9-7.53 6.7-18.94-3.37-23.2-6.48-12.37 13.91-8.25 13.98-19.13-0.02-9.2 6.3-22.57-5.82-27.06-0.28-3.75 1.53-7.44 2.99-10.78 12.86-3.18 7.2-19.4 15.2-26.8 6.7-4.2 13.48 0.67 18.07 5.43 6.92-0.2 15.48-4.78 20.79 2.16 2.12 2.41 2.62 11.36 7.15 8.43 1.53-5.64 3.37-14.84 11.73-12.35 9.49-0.75 9.64 10.54 16.05 14.02 10.46 0.32 2.64-13.44 8.03-18.9 2.02-1.25 4.49-2.11 6.89-2.07 13.28-0.69 10.15 19.86 23.35 16.4 6.64-2.85 2.01-10.19 0.03-14.71-3.41-7.3 5.02-14.39 11.64-10.71 10.17 1.04 9.64 16.08 19.78 16.58 6.5-1.41 16.26-3.17 17.86-10.86-0.2-9.31-13.93-17.08-6.37-26.44m11.01 49.16c-5.39 2.13-12.92 2.49-15.99 7.83-0.29 6.42 3.23 18.18 11.65 14.62 6-3.97 14.14-6.66 17.05-13.91 0.52-6.84-6.2-11.59-12.71-8.54m-49 13.97c-12.47 1.73-7.56 17.18-3.18 24.4 6.84 2.4 16.97-0.97 19.89-7.83-2.09-7.64-5.94-20.49-16.71-16.57m-39.01 5.9c-7.95 5.08-1.93 35.54 10.42 23.42 1.8-7.62 0.54-24.56-10.42-23.42m-34.04 3.87c-6.11 6.92-4.72 17.95-5.04 26.58 4.08 6.99 18.06 2.83 15.81-5.75-2.06-6.83 0.62-22.69-10.77-20.83m-29.04 7.05c-4.93 4.7-2.05 15.25-2.24 19.77 2.51-4.38 6.41-16.04 2.24-19.77m171.07 0.11c-6.59 5.43-22.53 7.3-18.68 18.98 4.48 9.27 7.97 19.58 14.63 27.51 11.15 0.92 33.67-13.19 21.76-25.79-5.39-6.61-7.09-21.84-17.71-20.7m-48.97 22.06c-6.68 3.1-20.15 1.21-17.25 12.58 3.75 9.52 2 32.11 18.01 27.19 7.45-1.07 26.8-1.64 20.29-13.45-7.19-8.11-6.86-28.58-21.05-26.32m-50.02 10.9c-10.07 4.32-7.5 16.99-6.23 25.7-3.24 15.66 29.08 13.06 21.9-1.94-2.88-8.07-2.12-26.64-15.67-23.76m-40.99 7.18c-12.72 0.65-13.25 17.58-9.34 26.53 6.27 6.63 24.74 3.41 21.09-7.99 1.6-8.35 0.89-23.81-11.75-18.54m-39.08 4.69c-4.56 6.33-10.69 20.41-0.2 23.83 9.41-2.46 10.26-24.51 0.2-23.83m211.07 7.17c-8.97 4.94-20.8 8.65-26.26 17.7 2.53 10.88 8.66 21.15 14.03 30.96 11.59-0.44 22.91-8.23 30.97-16.02-3.53-10.74-7.59-28.11-18.74-32.64m-54.99 23.05c-7.79 1.57-15.74 3.03-23.58 4.27-9.56 3.16-3.65 16.06-2.11 22.64 1.16 8.21 4.36 22.81 16.11 18.23 9.77-3.01 27.12-1.27 30.25-13.48-6.47-9.83-6.73-29.74-20.67-31.66m-162.01 8.96c-5.97 0.68-7.26 7.83-8.27 12.66-1.57 10.82-8.83 20.58-7.83 31.76 8.33 7.97 23.13-0.53 20.49-12.01-0.33-9.64 9.06-29.48-4.39-32.41m87 0.96c-9.13 3.25-2.87 13.87-4.22 20.71 1.93 7.46-2.11 20.57 8.17 22.54 8.38-3.56 22.44 2.48 26.77-7.57-0.82-10.56-5.49-20.33-7.35-30.71-3.34-9.5-15.94-4-23.37-4.97m-52 1c-10.67 7.07-5.25 23.93-9.15 34.75-2.34 17.35 20.96 9.58 30.62 10.65 12.78-7.01 0.35-26.14 2.83-37.42-1.37-11.89-16.31-8.26-24.3-7.98m209 19.03c-8.74 3.38-16.22 9.5-25.04 12.93-10.41 8.59 0.96 22.76 4.91 32.54 13.63 2.74 24.69-11.01 34.72-18.95 2.55-9.38-5.47-23.73-14.59-26.52m-57.33 25.7c-12.03 6.16-28.36 1.77-38.64 10.24-1.41 12.16 0.68 38.83 20.4 28.22 9.68-4.44 35.58 1.5 32.97-15.2-4.78-7.51-4.61-21.08-14.73-23.26m-79.67 12.38c-6.51 2.64-18.22 0.16-20.31 8.59-0.67 7.97-3.01 21.18 4.72 26.41 11.32-0.53 24.46-1.57 35.09-5.63 4.54-11.79-0.83-37.77-19.5-29.37m-126.99 4.01c-10.86 4.64-11.69 19.41-15.27 29.54 9.14 10.99 38.69 8.23 34.63-11.22 6.28-13.5-4.92-24.55-19.36-18.32m47.98 0.88c-9.05 3.75-4.89 16.3-7.26 23.7-0.98 18.45 22.65 9.48 34 9.95 16.16 1.47 7.16-19.15 8.7-27.68-6.64-12.32-24.58-3.92-35.44-5.97m241.69 2.73c-11.15 5.63-20.74 14.19-32.68 18.27-6.31 3.61-2.53 12.12 0.69 16.71 2.89 6.69 5.93 18.1 15.75 14.66 11.19-5.41 24.71-9.24 32.02-19.93-1.42-10.76-5.73-24.46-15.78-29.71m-68.68 30.38c-13.7 4.09-29.87 2.61-41.96 9.86-0.82 9.7-1.38 34.82 14.75 29.88 15.46-4.96 32.74-2.28 47.19-9.91 5.29-4.34-0.5-10.66-2.2-15.25-2.65-7.75-7.75-18.4-17.78-14.58m-75.99 9.96c-11.42 5.21-28.21-0.64-36.23 9.68 1.51 8.78-3.87 24.6 6.98 28.94 13.58-1.18 27.07-2.94 40.73-3.19 7.78-5.8-0.42-16.8-0.19-24.53 0.62-6.14-5.12-12.51-11.29-10.9m-162 6.02c-11.08 1.86-9.09 16.49-14.18 23.71-2.76 6.39 3.74 10.49 8.94 9.04 9.89 0.4 19.74 2.25 29.69 2.57 10.56-5.51 8.46-21.73 6.99-31.48-8.15-7.44-21.56-3.01-31.44-3.84m63 0.97c-14.03 2.41-7.19 21.61-9.13 31.43 8.27 7.13 20.88 2.6 30.85 3.2 6.22-0.49 21 3.06 19-7.99-2.32-8.15 3.69-23.33-7.03-26.98-11.1 1.51-22.7 1.09-33.69 0.34m267.99 2.92c-11.27 9.3-26.77 11.41-38.09 19.94 0.52 9.6 4.47 24.28 14.59 27.35 12.31-5.63 21.99-16.36 33.93-22.92 11.96-6.22-0.06-25.84-10.43-24.37m-68 28.14c-17.55 4.08-35.64 4.95-53.03 9.86-5.19 2.98-3.22 9.44-2.77 14.42 2.94 11.47 0.61 25.82 8.76 35.1 21.79-2.94 42.82-11.76 62.01-22.58 10.19-6.01 1.05-16.78-2.24-24.22-2.59-5.23-4.55-15.07-12.73-12.58m-91.96 14.04c-13.07 2.02-27.24 0.63-39.6 5.25-5.43 12.98-1.57 27.89 1.25 41.29-0.24 4.62 0.6 10.87 6.06 11.96 16.68 0.41 35.33 0.19 50.28-7.65 1.79-12.84-3.71-26.18-4.14-39.36 1.86-8.02-6.66-14.13-13.85-11.49m-188.04 2.88c-11.5 2.53-8.51 17.57-13.01 25.79-0.92 6.7-9.63 22.52 2.45 24.27 13.89 0.86 28.49 4.71 42.05 2.34 8.53-13.64 11.14-30.52 11.07-46.51-10.99-10.78-29.18-2.49-42.56-5.89m73.01 3.06c-14.86 5.02-6.15 26.48-12.86 37.89-2.07 4.99-6.4 13.73 1.6 15.65 21.14-1.1 43.39 5.93 63.72-1.22 6.07-11.71-4.77-24.56-0.73-36.72 0.57-27.3-35.59-11.55-51.73-15.6z" fill="#e7195a"/>
</g>
</svg>
